<?xml version="1.0" standalone="no"?>
<!DOCTYPE svg PUBLIC "-//W3C//DTD SVG 20010904//EN"
 "http://www.w3.org/TR/2001/REC-SVG-20010904/DTD/svg10.dtd">
<svg version="1.0" xmlns="http://www.w3.org/2000/svg"
 width="1920.000000pt" height="1080.000000pt" viewBox="0 0 1920.000000 1080.000000"
 preserveAspectRatio="xMidYMid meet">
<metadata>
Created by potrace 1.13, written by Peter Selinger 2001-2015
</metadata>
<g transform="translate(0.000000,1080.000000) scale(0.100000,-0.100000)"
fill="#000000" stroke="none">
<path d="M822 7321 c-65 -5 -77 -9 -98 -34 l-24 -28 0 -1848 c0 -1831 0 -1849
20 -1874 11 -14 34 -30 52 -36 l32 -11 -25 26 -24 26 -3 1833 c-1 1186 1 1842
8 1859 5 14 24 35 42 46 33 20 56 20 8838 20 6931 1 8801 3 8785 13 -16 9
-1906 12 -8775 13 -4815 0 -8788 -2 -8828 -5z"/>
<path d="M826 7224 c-14 -14 -16 -194 -16 -1834 0 -1640 2 -1820 16 -1834 14
-15 829 -16 8814 -16 7985 0 8800 1 8814 16 14 14 16 194 16 1834 0 1640 -2
1820 -16 1834 -14 15 -829 16 -8814 16 -7985 0 -8800 -1 -8814 -16z m17399
-156 c58 -26 55 75 55 -1693 0 -1768 3 -1667 -55 -1693 -38 -17 -17102 -17
-17140 0 -58 26 -55 -75 -55 1695 1 1750 -2 1660 51 1689 34 19 17104 21
17144 2z"/>
<path d="M1106 7004 c-14 -14 -16 -175 -16 -1629 0 -1454 2 -1615 16 -1629 14
-15 805 -16 8549 -16 7744 0 8535 1 8549 16 14 14 16 175 16 1629 0 1454 -2
1615 -16 1629 -14 15 -805 16 -8549 16 -7744 0 -8535 -1 -8549 -16z m1179
-889 c301 -64 583 -367 645 -695 16 -85 13 -277 -6 -362 -55 -245 -275 -510
-512 -615 -133 -59 -171 -63 -580 -63 -372 0 -376 0 -399 22 -23 21 -23 25
-23 239 l0 218 383 3 382 3 55 26 c101 48 162 117 199 227 55 161 -3 366 -128
458 -69 50 -122 65 -253 71 l-118 6 0 -262 0 -261 -260 0 -260 0 0 477 c0 476
0 477 22 500 l21 23 381 0 c297 0 396 -4 451 -15z m1197 -12 l28 -27 0 -827 0
-828 -26 -20 c-25 -20 -39 -21 -237 -21 -203 0 -212 1 -234 22 l-23 21 0 826
0 825 27 28 27 28 205 0 205 0 28 -27z m1851 -1 l27 -28 0 -190 0 -190 -28
-27 -27 -26 -495 -3 -495 -3 -56 -28 c-117 -57 -200 -155 -220 -259 l-12 -58
-244 0 -245 0 7 68 c31 303 223 569 509 703 142 66 157 68 732 68 l520 1 27
-28z m1621 7 l26 -20 0 -224 0 -224 -387 -3 -388 -3 -55 -26 c-111 -52 -190
-162 -212 -293 -28 -169 62 -345 212 -415 l55 -26 388 -3 387 -3 0 -224 0
-224 -27 -21 c-27 -21 -32 -21 -423 -18 l-395 3 -85 29 c-110 37 -222 94 -287
145 -254 201 -378 511 -329 828 56 370 319 644 701 732 22 5 209 9 416 10 366
1 377 0 403 -20z m1560 6 c129 -34 270 -133 336 -235 36 -57 70 -155 70 -206
l0 -34 -950 0 -950 0 0 245 0 245 718 0 c612 0 726 -2 776 -15z m2064 -4 c22
-19 22 -24 22 -226 0 -202 0 -207 -22 -226 -22 -18 -55 -18 -797 -19 l-775 0
-23 22 c-23 21 -23 25 -23 222 0 191 1 201 22 223 l21 23 776 0 c744 -1 777
-1 799 -19z m729 -13 l33 -32 0 -180 -1 -181 -29 -32 -30 -33 -294 0 -295 0
-25 33 c-26 33 -26 37 -26 211 0 176 0 178 26 212 l26 34 291 0 291 0 33 -32z
m1243 -213 l0 -245 -284 0 c-156 0 -291 -3 -300 -6 -14 -6 -16 -67 -16 -597
l0 -591 -32 -33 -32 -33 -196 0 -196 0 -27 28 -27 28 0 652 c0 627 1 653 20
704 43 114 163 238 294 303 l69 35 363 0 364 0 0 -245z m1628 226 c22 -19 22
-24 22 -226 0 -202 0 -207 -22 -226 -22 -18 -55 -18 -797 -19 l-775 0 -23 22
c-23 21 -23 25 -23 222 0 191 1 201 22 223 l21 23 776 0 c744 -1 777 -1 799
-19z m1197 -6 c86 -24 250 -104 322 -159 77 -58 142 -130 203 -223 322 -490
66 -1150 -510 -1313 -115 -33 -307 -38 -434 -12 -124 26 -276 99 -378 181
-394 318 -434 895 -89 1263 138 147 287 232 481 273 85 19 321 13 405 -10z
m2498 -3 l27 -28 0 -190 0 -190 -28 -27 -27 -26 -495 -3 -495 -3 -56 -28
c-117 -57 -200 -155 -220 -259 l-12 -58 -244 0 -245 0 6 68 c36 353 300 661
646 751 70 19 112 20 596 20 l520 1 27 -28z m-7446 -649 c-12 -119 -118 -283
-228 -353 -118 -77 -249 -99 -581 -100 l-138 0 0 -65 0 -65 532 0 532 0 28
-27 28 -27 0 -199 c0 -194 -1 -199 -22 -218 -22 -18 -55 -18 -797 -19 l-775 0
-23 22 -23 21 0 521 0 520 22 23 21 23 715 0 715 0 -6 -57z m3600 0 c-12 -119
-118 -283 -228 -353 -118 -77 -249 -99 -581 -100 l-138 0 0 -65 0 -65 532 0
532 0 28 -27 28 -27 0 -199 c0 -194 -1 -199 -22 -218 -22 -18 -55 -18 -797
-19 l-775 0 -23 22 -23 21 0 521 0 520 22 23 21 23 715 0 715 0 -6 -57z
m-6493 14 l26 -34 0 -492 0 -492 -26 -35 -26 -34 -201 0 -201 0 -28 27 -28 27
0 505 0 505 27 28 27 28 202 0 203 0 25 -33z m1381 -9 c-18 -108 -88 -234
-170 -306 -78 -69 -250 -142 -332 -142 -13 0 -23 -4 -23 -8 0 -4 119 -124 265
-266 l265 -258 0 -49 0 -49 -284 0 -284 0 -356 367 -356 367 0 160 c0 155 1
160 26 193 l25 33 615 0 616 0 -7 -42z m-3555 -285 c0 -63 -24 -174 -52 -243
-100 -247 -301 -435 -561 -523 -59 -20 -85 -21 -608 -24 l-546 -4 -26 35 c-27
34 -27 36 -27 206 0 169 0 172 26 205 l26 34 496 3 497 3 58 29 c115 56 213
180 225 282 l5 44 243 0 244 0 0 -47z m12540 2 c0 -136 -79 -340 -185 -474
-101 -128 -261 -238 -428 -294 -59 -20 -85 -21 -608 -24 l-546 -4 -26 35 c-27
34 -27 36 -27 206 0 169 0 172 26 205 l26 34 496 3 497 3 58 29 c115 56 213
180 225 282 l5 44 243 0 244 0 0 -45z"/>
<path d="M1510 5630 l0 -410 160 0 160 0 0 256 0 256 193 -4 c225 -4 246 -11
352 -110 105 -98 155 -218 155 -372 0 -228 -108 -387 -301 -447 -54 -17 -95
-19 -390 -19 l-329 0 0 -156 0 -156 348 4 c388 5 404 7 548 78 207 101 349
273 414 501 30 103 37 279 16 379 -51 239 -241 462 -476 557 -118 47 -171 53
-522 53 l-328 0 0 -410z"/>
<path d="M3090 5255 l0 -785 160 0 160 0 0 785 0 785 -160 0 -160 0 0 -785z"/>
<path d="M4268 6029 c-151 -20 -274 -85 -403 -214 -120 -121 -200 -263 -221
-394 l-7 -41 157 0 c124 0 156 3 156 13 0 8 14 41 30 75 56 112 198 223 321
251 26 6 231 11 507 11 l462 0 0 155 0 155 -467 -1 c-258 -1 -498 -5 -535 -10z"/>
<path d="M6164 6025 c-226 -41 -404 -162 -532 -361 -143 -225 -150 -565 -15
-793 113 -189 277 -317 482 -374 69 -19 108 -21 429 -25 l352 -4 0 156 0 156
-318 0 c-346 0 -388 5 -484 57 -109 59 -205 191 -228 312 -22 117 -4 250 47
342 34 63 119 148 181 182 96 52 138 57 484 57 l318 0 0 155 0 155 -322 -1
c-217 -1 -346 -5 -394 -14z"/>
<path d="M7120 5885 l0 -155 841 0 841 0 -6 27 c-18 71 -129 184 -229 233 -34
16 -91 34 -127 40 -39 6 -316 10 -692 10 l-628 0 0 -155z"/>
<path d="M9060 5885 l0 -155 725 0 725 0 0 155 0 155 -725 0 -725 0 0 -155z"/>
<path d="M10740 5885 l0 -155 250 0 250 0 0 155 0 155 -250 0 -250 0 0 -155z"/>
<path d="M11853 6030 c-22 -5 -61 -19 -85 -31 -59 -30 -179 -153 -209 -214
l-24 -50 -3 -632 -3 -633 161 0 160 0 0 581 c0 572 0 582 21 615 39 65 37 64
326 64 l264 0 -3 153 -3 152 -280 1 c-154 1 -299 -2 -322 -6z"/>
<path d="M12660 5885 l0 -155 725 0 725 0 0 155 0 155 -725 0 -725 0 0 -155z"/>
<path d="M15030 6029 c-302 -46 -544 -250 -647 -544 -25 -74 -27 -92 -27 -230
0 -138 2 -156 27 -230 93 -265 295 -454 562 -526 111 -30 298 -30 406 -1 161
43 287 118 399 239 79 84 124 159 162 264 59 167 59 341 -1 509 -86 244 -298
434 -559 501 -91 23 -235 31 -322 18z m262 -339 c175 -54 307 -202 339 -379
40 -227 -120 -465 -355 -527 -28 -8 -83 -14 -121 -14 -132 0 -244 44 -334 130
-191 183 -198 469 -16 659 59 62 161 123 231 140 70 16 187 12 256 -9z"/>
<path d="M15060 5604 c-111 -30 -202 -103 -258 -209 -24 -45 -27 -61 -27 -155
0 -90 3 -112 23 -152 76 -154 261 -251 418 -220 128 26 242 110 294 217 22 43
25 64 25 155 0 96 -3 110 -28 158 -53 101 -150 177 -262 206 -72 19 -113 19
-185 0z"/>
<path d="M16808 6029 c-151 -20 -274 -85 -403 -214 -120 -121 -200 -263 -221
-394 l-7 -41 157 0 c124 0 156 3 156 13 0 8 14 41 30 75 56 112 198 223 321
251 26 6 231 11 507 11 l462 0 0 155 0 155 -467 -1 c-258 -1 -498 -5 -535 -10z"/>
<path d="M9060 4945 l0 -475 725 0 725 0 0 155 0 155 -565 0 -565 0 0 155 0
155 258 0 c279 0 359 8 440 45 72 33 165 124 202 198 16 33 30 66 30 74 0 11
-109 13 -625 13 l-625 0 0 -475z"/>
<path d="M12660 4945 l0 -475 725 0 725 0 0 155 0 155 -565 0 -565 0 0 155 0
155 258 0 c279 0 359 8 440 45 72 33 165 124 202 198 16 33 30 66 30 74 0 11
-109 13 -625 13 l-625 0 0 -475z"/>
<path d="M7140 4940 l0 -470 165 0 165 0 -2 468 -3 467 -162 3 -163 2 0 -470z"/>
<path d="M7740 5272 l0 -137 333 -333 332 -332 195 1 195 0 -312 308 c-172
169 -313 311 -313 314 0 4 54 7 120 7 140 0 203 12 284 52 97 49 197 156 221
236 l6 22 -530 0 -531 0 0 -138z"/>
<path d="M4954 5113 c-30 -99 -130 -223 -225 -280 -102 -61 -125 -63 -631 -63
l-458 0 0 -151 0 -150 503 4 c552 4 565 5 690 68 88 45 141 83 209 151 108
108 202 279 215 390 l6 48 -152 0 c-136 0 -152 -2 -157 -17z"/>
<path d="M17494 5113 c-30 -99 -130 -223 -225 -280 -102 -61 -125 -63 -631
-63 l-458 0 0 -151 0 -150 503 4 c552 4 565 5 690 68 88 45 141 83 209 151
108 108 202 279 215 390 l6 48 -152 0 c-136 0 -152 -2 -157 -17z"/>
<path d="M933 3474 c3 -3 63 -9 134 -12 70 -4 3976 -7 8678 -7 6427 0 8557 3
8580 12 23 8 -2097 11 -8684 12 -4793 1 -8712 -2 -8708 -5z"/>
</g>
</svg>
